<svg width="250" height="248" viewBox="0 0 250 248" fill="none" xmlns="http://www.w3.org/2000/svg">
<path d="M125 0L153.893 54.8051L213.388 36.3188L194.753 95.3385L250 124L194.753 152.661L213.388 211.681L153.893 193.195L125 248L96.1074 193.195L36.6116 211.681L55.2471 152.661L0 124L55.2471 95.3385L36.6116 36.3188L96.1074 54.8051L125 0Z" fill="#B9C400"/>
<path d="M73.983 139.398C71.9754 139.398 70.1856 139.028 68.6136 138.29C67.0511 137.551 65.8106 136.533 64.892 135.236C63.9735 133.938 63.4953 132.452 63.4574 130.776H69.4233C69.4896 131.902 69.9631 132.816 70.8438 133.517C71.7244 134.218 72.7708 134.568 73.983 134.568C74.9489 134.568 75.8011 134.355 76.5398 133.929C77.2879 133.493 77.8703 132.892 78.2869 132.125C78.7131 131.348 78.9261 130.458 78.9261 129.455C78.9261 128.432 78.7083 127.532 78.2727 126.756C77.8466 125.979 77.2547 125.373 76.4972 124.938C75.7396 124.502 74.8731 124.279 73.8977 124.27C73.0455 124.27 72.2169 124.445 71.4119 124.795C70.6165 125.146 69.9962 125.624 69.5511 126.23L64.0824 125.25L65.4602 109.909H83.2443V114.938H70.5312L69.7784 122.224H69.9489C70.4602 121.505 71.232 120.908 72.2642 120.435C73.2964 119.961 74.4517 119.724 75.7301 119.724C77.482 119.724 79.0445 120.136 80.4176 120.96C81.7907 121.784 82.875 122.916 83.6705 124.355C84.4659 125.785 84.8589 127.433 84.8494 129.298C84.8589 131.259 84.4044 133.001 83.4858 134.526C82.5767 136.041 81.303 137.234 79.6648 138.105C78.036 138.967 76.142 139.398 73.983 139.398ZM99.6648 109.511C101.161 109.511 102.6 109.762 103.983 110.264C105.375 110.766 106.616 111.566 107.705 112.665C108.803 113.763 109.67 115.222 110.304 117.04C110.948 118.848 111.275 121.069 111.284 123.702C111.284 126.173 111.005 128.38 110.446 130.321C109.897 132.253 109.106 133.896 108.074 135.25C107.042 136.604 105.796 137.636 104.338 138.347C102.88 139.047 101.251 139.398 99.4517 139.398C97.5104 139.398 95.7964 139.024 94.3097 138.276C92.8229 137.518 91.625 136.491 90.7159 135.193C89.8163 133.886 89.2718 132.419 89.0824 130.79H95.1477C95.3845 131.85 95.8816 132.674 96.6392 133.261C97.3968 133.839 98.3343 134.128 99.4517 134.128C101.346 134.128 102.785 133.304 103.77 131.656C104.755 129.999 105.252 127.731 105.261 124.852H105.062C104.627 125.705 104.04 126.438 103.301 127.054C102.563 127.66 101.715 128.129 100.759 128.46C99.8116 128.792 98.803 128.957 97.733 128.957C96.0189 128.957 94.4896 128.555 93.1449 127.75C91.8002 126.945 90.7396 125.837 89.9631 124.426C89.1866 123.015 88.7983 121.405 88.7983 119.597C88.7888 117.646 89.2386 115.908 90.1477 114.384C91.0568 112.859 92.3258 111.666 93.9545 110.804C95.5928 109.933 97.4962 109.502 99.6648 109.511ZM99.7074 114.341C98.7509 114.341 97.8987 114.568 97.1506 115.023C96.4119 115.477 95.8248 116.088 95.3892 116.855C94.9631 117.622 94.7547 118.479 94.7642 119.426C94.7642 120.383 94.9725 121.244 95.3892 122.011C95.8153 122.769 96.393 123.375 97.1222 123.83C97.8608 124.275 98.7036 124.497 99.6506 124.497C100.361 124.497 101.019 124.365 101.625 124.099C102.231 123.834 102.757 123.47 103.202 123.006C103.656 122.532 104.011 121.988 104.267 121.372C104.523 120.757 104.651 120.103 104.651 119.412C104.641 118.493 104.423 117.651 103.997 116.884C103.571 116.116 102.984 115.501 102.236 115.037C101.488 114.573 100.645 114.341 99.7074 114.341ZM126.952 139.639C124.509 139.63 122.406 139.028 120.645 137.835C118.893 136.642 117.544 134.914 116.597 132.651C115.659 130.387 115.195 127.665 115.205 124.483C115.205 121.311 115.673 118.607 116.611 116.372C117.558 114.137 118.907 112.437 120.659 111.273C122.42 110.098 124.518 109.511 126.952 109.511C129.385 109.511 131.478 110.098 133.23 111.273C134.991 112.447 136.346 114.152 137.293 116.386C138.24 118.612 138.708 121.311 138.699 124.483C138.699 127.674 138.225 130.402 137.278 132.665C136.341 134.928 134.996 136.656 133.244 137.849C131.492 139.043 129.395 139.639 126.952 139.639ZM126.952 134.54C128.618 134.54 129.949 133.702 130.943 132.026C131.938 130.349 132.43 127.835 132.42 124.483C132.42 122.277 132.193 120.439 131.739 118.972C131.294 117.504 130.659 116.401 129.835 115.662C129.021 114.923 128.06 114.554 126.952 114.554C125.295 114.554 123.969 115.383 122.974 117.04C121.98 118.697 121.478 121.178 121.469 124.483C121.469 126.718 121.691 128.583 122.136 130.08C122.591 131.566 123.23 132.684 124.054 133.432C124.878 134.17 125.844 134.54 126.952 134.54ZM171.547 119.923L170.141 123.034H151.149L152.3 119.923H171.547ZM168.834 125.875L167.286 129.057H151.149L152.3 125.875H168.834ZM175.24 112.153L172.967 117.011C172.589 116.746 172.129 116.457 171.589 116.145C171.059 115.823 170.448 115.553 169.757 115.335C169.075 115.108 168.318 114.994 167.484 114.994C166.168 114.994 165.022 115.326 164.047 115.989C163.071 116.652 162.314 117.684 161.774 119.085C161.244 120.487 160.979 122.286 160.979 124.483C160.979 126.699 161.244 128.503 161.774 129.895C162.314 131.277 163.071 132.295 164.047 132.949C165.022 133.593 166.168 133.915 167.484 133.915C168.318 133.915 169.075 133.806 169.757 133.588C170.439 133.37 171.036 133.11 171.547 132.807C172.068 132.504 172.503 132.224 172.854 131.969L175.155 136.827C174.123 137.679 172.953 138.323 171.646 138.759C170.339 139.185 168.952 139.398 167.484 139.398C165.003 139.398 162.806 138.811 160.893 137.636C158.99 136.453 157.499 134.753 156.419 132.537C155.339 130.312 154.8 127.627 154.8 124.483C154.8 121.348 155.339 118.664 156.419 116.429C157.499 114.194 158.99 112.485 160.893 111.301C162.806 110.108 165.003 109.511 167.484 109.511C169.009 109.511 170.42 109.739 171.717 110.193C173.015 110.648 174.189 111.301 175.24 112.153Z" fill="#262C27"/>
</svg>
