<svg aria-hidden="true" style="position:absolute;width:0;height:0;overflow:hidden" xmlns="http://www.w3.org/2000/svg"><defs><symbol id="icon-logo" viewBox="0 0 140 32"><path d="M4.123 20.849 24.221 1.668v6.443c0 .373-.155.73-.431.993L7.803 24.361l-3.68-3.512zm6.149 5.869 13.949-13.312v6.443c0 .372-.155.73-.431.993l-6.157 5.876 4.892 4.669h-7.361l-4.892-4.669zm126.927-5.901 3.573 2.423a9.213 9.213 0 0 1-7.235 3.474c-5.065 0-9.169-4.033-9.169-9.009s4.105-9.009 9.169-9.009a9.21 9.21 0 0 1 7.235 3.474l-3.573 2.423a4.768 4.768 0 0 0-3.663-1.72c-2.642 0-4.792 2.167-4.792 4.831s2.15 4.831 4.792 4.831a4.77 4.77 0 0 0 3.663-1.72zm-96.871-4.823h7.393l-1.412 3.964h-5.98v6.756h-4.315V8.697h14.307l-1.412 3.964h-8.58v3.333zm61.047-7.297H115.4v3.964h-4.855v14.053h-4.316V12.661h-4.855V8.697zm15.889 18.018h4.416V8.698h-4.416v18.017zm-25.9-6.773 2.185-6.534 2.185 6.534h-4.369zm-.566-11.245-6.419 18.017h4.72l.936-2.809h7.028l.936 2.809h4.72L96.3 8.697h-5.502zm-12.46 0h4.315v18.017h-3.236l-7.282-9.781v9.781H67.82V8.697h3.236l7.282 9.781V8.697zM54.74 19.942l2.185-6.534 2.185 6.534h-4.369zm-.566-11.245-6.419 18.017h4.72l.936-2.809h7.027l.936 2.809h4.72L59.675 8.697h-5.502z"/></symbol><symbol id="icon-button-play" viewBox="0 0 32 32"><path fill="" style="fill:var(--color1)" d="M24.079 15.771 11.96 22.699V8.843l12.119 6.928z"/><path fill="none" stroke="" style="stroke:var(--color1, #fff)" stroke-width=".914" d="M31.543 16c0 8.584-6.959 15.543-15.543 15.543S.457 24.584.457 16 7.416.457 16 .457 31.543 7.416 31.543 16z"/></symbol></defs></svg>